<?xml version="1.0" encoding="UTF-8" standalone="no"?>
<svg
        width="175.8074"
        height="175.8074"
        viewBox="0 0 46.515123 46.515123"
        version="1.1"
        xmlns="http://www.w3.org/2000/svg">
  <g transform="translate(-56.596092,-138.30108)">
    <path
            style="fill:#FFFFFF;fill-opacity:1;"
            d="M 2.7910156,0 V 4.9980469 175.80859 H 173.01172 V 0 Z M 12.792969,10.001953 H 72.976562 C 53.363668,61.05802 32.53967,114.67425 12.792969,165.5 Z m 73.40039,0 h 46.230471 c -5.02159,0.607947 -9.1865,2.215904 -12.52344,4.751953 -4.33402,3.380566 -6.5,7.885319 -6.5,13.519532 0,1.733615 0.17398,3.295988 0.60742,4.769531 0.43338,1.473581 0.95648,2.688338 1.47657,3.728515 0.52012,1.040177 1.29623,1.991877 2.50976,2.945313 1.21353,0.866808 2.16835,1.64587 3.03516,2.166015 0.78012,0.520259 2.08084,1.038984 3.81445,1.732422 1.73361,0.606849 3.03238,1.042738 3.8125,1.302735 0.86681,0.259657 2.25365,0.694008 4.33398,1.300781 0.26004,0 0.52125,0.08728 0.78125,0.173828 0.34674,0.08693 0.52004,0.170882 0.69336,0.257813 0.17337,0 0.43061,0.0869 0.77735,0.173828 6.06763,1.733577 9.96803,3.036033 11.875,4.076172 1.90697,0.953473 2.77734,2.512743 2.77734,4.679687 0,2.51372 -0.95482,4.506926 -3.03515,5.980469 -2.08034,1.473618 -4.85431,2.253906 -8.40821,2.253906 -9.01476,0 -13.69504,-3.902583 -13.95508,-11.617187 H 111.0625 c 0.0867,6.934424 2.51262,12.395052 7.19336,16.208984 2.34037,1.906947 5.1575,3.36276 8.42969,4.337891 -4.20842,1.443306 -8.42059,3.589636 -12.5918,6.412109 -8.34239,5.644796 -16.011627,13.728751 -22.755859,23.99219 h 13.435549 c 7.66662,-11.418099 16.08875,-17.191409 25.10351,-17.191409 3.5539,0 5.58253,1.156849 6.24805,3.337891 0.66561,2.180966 -0.29567,5.131138 -2.70898,8.851562 -2.08048,3.207276 -4.44527,5.512686 -7.26758,6.923826 -2.90561,1.53946 -8.05705,3.46534 -15.78906,6.03125 -0.42986,0.12889 -0.77395,0.25782 -0.94727,0.25782 -0.25648,0.12812 -0.50763,0.25498 -0.9375,0.38281 -0.34311,0.1285 -0.68721,0.25781 -0.94727,0.25781 -2.66288,0.89806 -4.4678,1.53926 -5.58398,1.92383 -1.02974,0.3848 -2.746256,1.02756 -5.062501,1.92578 -2.399353,1.02638 -4.198883,1.79459 -5.478515,2.56445 -1.366147,0.76983 -3.069475,1.92601 -5.115235,3.20899 -2.128894,1.41118 -3.8211,2.82179 -5.339843,4.36133 -1.518724,1.53953 -3.2066,3.33668 -5.054688,5.51757 -1.848091,2.18097 -3.519205,4.48885 -5.183594,7.05469 -5.409252,8.33903 -7.57086,15.01016 -6.482422,20.01367 0.983805,4.0931 4.009882,6.55079 9.210938,7.23633 H 26.164062 L 110.02148,72.742188 Z m 55.640621,0 h 21.18164 v 41.189453 c -0.5111,-3.37655 -1.90368,-6.077119 -4.1914,-8.095703 -2.94713,-2.600423 -7.54565,-4.768337 -13.61328,-6.501953 -1.38689,-0.433706 -2.94655,-0.863509 -4.85352,-1.296875 -1.82029,-0.520296 -3.20788,-0.868834 -4.24804,-1.128906 -1.04017,-0.346965 -2.16343,-0.694278 -3.37696,-1.041016 -1.21353,-0.346965 -2.16984,-0.692362 -2.86328,-1.039062 -0.60676,-0.346965 -1.2128,-0.692859 -1.90625,-1.212891 -0.60678,-0.520334 -1.03683,-1.040402 -1.29687,-1.560547 -0.17337,-0.606848 -0.34766,-1.296796 -0.34766,-1.990234 0,-2.253723 0.95194,-3.99157 2.68555,-5.205078 1.73361,-1.213546 4.1588,-1.81836 7.27929,-1.81836 7.28116,0 11.185,3.033218 11.70508,9.1875 l 12.91602,-0.08594 c -0.17337,-6.587686 -2.42966,-11.442429 -6.76368,-14.736328 -3.37973,-2.518211 -7.47043,-4.070765 -12.30664,-4.664063 z m -62.326168,16.107422 8.150391,22.96875 H 71.273438 Z M 163.01562,57.509766 V 165.80664 H 80.09375 c 5.873903,-0.6696 11.95473,-3.03385 18.291016,-7.10742 7.496394,-4.87516 14.410144,-12.06226 20.908204,-21.8125 l -12.83399,-0.125 c -6.42869,9.10877 -13.240325,13.5957 -20.52148,13.5957 -3.120493,0 -4.966678,-0.8952 -5.535156,-2.6914 -0.568584,-1.79606 0.142985,-4.36356 2.30664,-7.69922 0.665769,-1.02635 1.503828,-2.053 2.259766,-2.95118 0.759381,-0.76982 1.692562,-1.53873 2.798828,-2.30859 1.192724,-0.76967 2.130264,-1.28086 3.070313,-1.79492 1.026317,-0.51315 2.314556,-1.02504 3.861328,-1.53906 1.546402,-0.51319 3.005499,-1.02504 4.378906,-1.53907 1.289845,-0.38495 3.008355,-0.90002 5.328125,-1.66992 2.32306,-0.64139 4.30023,-1.27987 6.10352,-1.92187 7.73201,-2.56588 14.40786,-5.77435 19.85156,-9.62305 5.44376,-3.84878 10.49596,-9.36641 15.15625,-16.55078 3.32878,-5.131719 5.62733,-9.750755 6.65039,-13.59961 1.10969,-3.848628 1.11449,-6.925092 0.18555,-9.234375 -0.78816,-1.958803 -2.06315,-3.45448 -3.82422,-4.490234 2.43295,-0.699789 4.67952,-1.711738 6.73828,-3.035157 2.42705,-1.560284 4.42171,-3.639848 5.80859,-6.240234 0.99899,-1.762954 1.63127,-3.77134 1.93945,-5.958984 z M 67.978516,58.960938 H 90.951172 L 95.804688,72.744141 77.71875,93.140625 H 54.75 C 59.155484,82.01125 63.570034,70.574778 67.978516,58.960938 Z M 48.554688,107.76758 h 16.384765 l -30.203125,33.99609 z"
            transform="matrix(0.26458,0,0,0.26458,56.596092,138.30108)" />
  </g>
</svg>
